<?xml version="1.0" encoding="iso-8859-1"?>
<!-- Uploaded to: SVG Repo, www.svgrepo.com, Generator: SVG Repo Mixer Tools -->
<!DOCTYPE svg PUBLIC "-//W3C//DTD SVG 1.1//EN" "http://www.w3.org/Graphics/SVG/1.1/DTD/svg11.dtd">
<svg fill="#000000" version="1.1" id="Capa_1" xmlns="http://www.w3.org/2000/svg" xmlns:xlink="http://www.w3.org/1999/xlink" 
	 width="800px" height="800px" viewBox="0 0 966.511 966.511"
	 xml:space="preserve">
<g>
	<path d="M769.902,857.511h0.531c22.736,0,41.234-18.498,41.234-41.234v-254.57c54.057-57.764,105.613-162.325,107.801-166.788
		l11.77-24.012L588.498,149.97l0.719-1.028l26.305-37.649L603.05,94.018c-29.83-41.323-70.947-69.867-125.702-87.262L456.083,0
		l-30.512,44.655l-26.516-17.139l-195.63,268.832c0,0,35.135,18.718,37.443,19.98L35.273,614.755v328.978l354.925-508.351
		c29.929,37.244,47.372,75.766,50.601,112.027c3.218,36.134-4.303,68.292-26.361,97.49c-13.065,17.297-30.488,34.182-51.785,48.211
		l-67.746,42.633c0,0,21.147,2.938,41.763,5.803v70.949c0,26.199,21.314,47.516,47.516,47.516h0.625
		c22.085,0,41.577-15.589,46.349-37.067c3.807-17.14,11.584-22.176,37.83-24.49c17.845-1.574,34.277-5.903,46.529-9.975v129.297
		c0,26.873,21.861,48.735,48.734,48.735h0.682c26.873,0,48.736-21.862,48.736-48.735V762.282c1.627,0.109,3.293,0.171,5,0.171
		c23.363-0.002,45.256-11.644,68.896-36.636c15.076-15.938,29.648-28.851,41.104-38.221v128.678
		C728.669,839.013,747.167,857.511,769.902,857.511z M468.267,35.347c44.577,14.162,82.44,37.412,110.459,76.229
		c-4.988,7.141-9.438,13.509-14.102,20.185c-37.797-24.443-74.984-48.492-112.518-72.765
		C457.647,50.888,462.765,43.4,468.267,35.347z M65.273,848.465V623.937c32.435-48.025,196.971-285.742,196.971-285.742
		c39.021,20.232,74.644,44.776,105.851,76.444L65.273,848.465z M248.002,286.081C300.563,213.851,353.433,141.2,406.613,68.12
		c119.49,77.239,236.548,152.905,355.353,229.701C691.21,408.973,600.253,494.259,477.561,542.11
		c-2.307,0.741-4.618,1.449-6.932,2.137C461.992,450.304,377.051,354.744,248.002,286.081z M469.671,595.8
		c1.416-6.554,2.397-13.145,2.998-19.756l8.546-3.205c2.183-0.818,4.359-1.652,6.531-2.496
		c47.541-15.465,90.18-40.55,130.287-70.334c52.982-39.345,99.736-85.149,138.688-138.569l31.15-46.889l104.662,67.162
		c0,0-48.086,98.096-98.047,154.316c-28.115-15.023-57.803-22.924-86.486-22.924c-29.264,0-56.807,7.964-81.861,23.667
		c-25.072,15.716-43.102,38.166-60.535,59.879c-25.359,31.578-47.262,58.853-86.578,64.134c-7.312,0.98-13.894,1.459-20.119,1.459
		c-6.282,0-12.378-0.47-18.89-1.487C454.469,641.038,464.59,619.319,469.671,595.8z M665.771,705.203
		c-23.104,24.424-37.947,27.249-47.104,27.25c-5.297,0-10.371-0.997-16.359-2.494l-18.639-4.66v192.478
		c0,10.33-8.404,18.734-18.734,18.734h-0.682c-10.332,0-18.736-8.404-18.736-18.734V742.558l-21.549,10.458
		c-0.264,0.128-26.723,12.827-57.617,15.554c-28.525,2.517-56.083,10.058-64.479,47.87c-1.746,7.863-8.921,13.571-17.062,13.571
		h-0.625c-9.657,0-17.516-7.857-17.516-17.516v-66.781v-17.59l55.202-40.371c13.369,3.091,25.028,4.491,37.032,4.491
		c7.575,0,15.463-0.564,24.112-1.728c51.206-6.877,79.049-41.551,105.977-75.082c16.605-20.682,32.293-40.216,53.076-53.242
		c20.205-12.664,42.389-19.087,65.928-19.087c21.209,0,43.279,5.323,64.684,15.508c3.012,1.433,6.008,2.959,8.988,4.581v28.312
		v224.77c0,6.195-5.039,11.235-11.234,11.235h-0.529c-6.195,0-11.234-5.04-11.234-11.235v-186.55l-23.23,15.244
		C734.072,645.867,701.564,667.366,665.771,705.203z"/>
</g>
</svg>