<?xml version="1.0" encoding="iso-8859-1"?>
<!-- Uploaded to: SVG Repo, www.svgrepo.com, Generator: SVG Repo Mixer Tools -->
<svg fill="#000000" height="800px" width="800px" version="1.1" id="Capa_1" xmlns="http://www.w3.org/2000/svg" xmlns:xlink="http://www.w3.org/1999/xlink" 
	 viewBox="0 0 25.274 25.274" xml:space="preserve">
<g>
	<path d="M24.989,15.893c-0.731-0.943-3.229-3.73-4.34-4.96c0.603-0.77,0.967-1.733,0.967-2.787c0-2.503-2.03-4.534-4.533-4.534
		c-2.507,0-4.534,2.031-4.534,4.534c0,1.175,0.455,2.24,1.183,3.045l-1.384,1.748c-0.687-0.772-1.354-1.513-1.792-2.006
		c0.601-0.77,0.966-1.733,0.966-2.787c-0.001-2.504-2.03-4.535-4.536-4.535c-2.507,0-4.536,2.031-4.536,4.534
		c0,1.175,0.454,2.24,1.188,3.045L0.18,15.553c0,0-0.406,1.084,0,1.424c0.36,0.3,0.887,0.81,1.878,0.258
		c-0.107,0.974-0.054,2.214,0.693,2.924c0,0,0.749,1.213,2.65,1.456c0,0,2.1,0.244,4.543-0.367c0,0,1.691-0.312,2.431-1.794
		c0.113,0.263,0.266,0.505,0.474,0.705c0,0,0.751,1.213,2.649,1.456c0,0,2.103,0.244,4.54-0.367c0,0,2.102-0.38,2.65-2.339
		c0.297-0.004,0.663-0.097,1.149-0.374C24.244,18.198,25.937,17.111,24.989,15.893z M13.671,8.145c0-1.883,1.527-3.409,3.409-3.409
		c1.884,0,3.414,1.526,3.414,3.409c0,1.884-1.53,3.411-3.414,3.411C15.198,11.556,13.671,10.029,13.671,8.145z M13.376,12.348
		l0.216,0.516c0,0-0.155,0.466-0.363,1.069c-0.194-0.217-0.388-0.437-0.585-0.661L13.376,12.348z M3.576,8.145
		c0-1.883,1.525-3.409,3.41-3.409c1.881,0,3.408,1.526,3.408,3.409c0,1.884-1.527,3.411-3.408,3.411
		C5.102,11.556,3.576,10.029,3.576,8.145z M2.186,16.398c-0.033,0.07-0.065,0.133-0.091,0.177c-0.801,0.605-1.188,0.216-1.449,0
		c-0.259-0.216,0-0.906,0-0.906l2.636-3.321l0.212,0.516c0,0-0.227,0.682-0.503,1.47l-0.665,1.49
		C2.325,15.824,2.257,16.049,2.186,16.398z M9.299,20.361c-2.022,0.507-3.758,0.304-3.758,0.304
		c-1.574-0.201-2.196-1.204-2.196-1.204c-1.121-1.066-0.348-3.585-0.348-3.585l1.699-3.823c0.671,0.396,1.451,0.627,2.29,0.627
		c0.584,0,1.141-0.114,1.656-0.316l2.954,5.417C11.482,19.968,9.299,20.361,9.299,20.361z M9.792,12.758l0.885-0.66
		c0,0,2.562,2.827,3.181,3.623c0.617,0.794-0.49,1.501-0.75,1.723c-0.259,0.147-0.464,0.206-0.635,0.226L9.792,12.758z
		 M19.394,20.361c-2.018,0.507-3.758,0.304-3.758,0.304c-1.569-0.201-2.191-1.204-2.191-1.204c-0.182-0.175-0.311-0.389-0.403-0.624
		c0.201-0.055,0.433-0.15,0.698-0.301c0.405-0.337,2.102-1.424,1.154-2.643c-0.24-0.308-0.678-0.821-1.184-1.405l1.08-2.435
		c0.674,0.396,1.457,0.627,2.293,0.627c0.585,0,1.144-0.114,1.654-0.316l2.955,5.417C21.582,19.968,19.394,20.361,19.394,20.361z
		 M23.201,17.444c-0.255,0.147-0.461,0.206-0.63,0.226l-2.68-4.912l0.879-0.66c0,0,2.562,2.827,3.181,3.623
		C24.57,16.516,23.466,17.223,23.201,17.444z"/>
	<g>
	</g>
	<g>
	</g>
	<g>
	</g>
	<g>
	</g>
	<g>
	</g>
	<g>
	</g>
	<g>
	</g>
	<g>
	</g>
	<g>
	</g>
	<g>
	</g>
	<g>
	</g>
	<g>
	</g>
	<g>
	</g>
	<g>
	</g>
	<g>
	</g>
</g>
</svg>