<?xml version="1.0" encoding="iso-8859-1"?>
<!-- Uploaded to: SVG Repo, www.svgrepo.com, Generator: SVG Repo Mixer Tools -->
<!DOCTYPE svg PUBLIC "-//W3C//DTD SVG 1.1//EN" "http://www.w3.org/Graphics/SVG/1.1/DTD/svg11.dtd">
<svg fill="#000000" version="1.1" id="Capa_1" xmlns="http://www.w3.org/2000/svg" xmlns:xlink="http://www.w3.org/1999/xlink" 
	 width="800px" height="800px" viewBox="0 0 933.089 933.089"
	 xml:space="preserve">
<g>
	<path d="M149.35,872.737c85.186,27.417,197.834,42.516,317.195,42.516s232.009-15.099,317.195-42.516
		c43.362-13.955,77.908-30.587,102.674-49.434c14.094-10.724,25.16-22.328,32.892-34.487c9.146-14.385,13.783-29.597,13.783-45.212
		c0-36.981-25.911-89.403-149.349-129.132c-20.117-6.475-41.782-12.252-64.69-17.316v-37.425v-1.343v-10.524v-28.875l-0.894,0.196
		c-5.447-87.52-36.027-167.005-91.129-236.628c-47.974-60.62-114.412-113.555-197.472-157.338
		c-40.211-21.197-106.437-51.616-193.586-76.162c-52.293-14.729-87.333-20.371-88.799-20.604L80.359,17.836l34.602,58.132
		l101.191,170.001v301.895v6.338l0.001,0.002l-0.001,4.185v38.301c-23.692,5.175-46.066,11.111-66.802,17.785
		c-43.363,13.956-77.907,30.588-102.675,49.434c-14.094,10.724-25.16,22.328-32.892,34.487C4.637,712.779,0,727.991,0,743.605
		C0,780.587,25.911,833.01,149.35,872.737z M142.197,59.756c0,0,525.289,83.492,544.592,466.309l-6.214,1.363
		c-1.031,0.226-104.362,22.549-212.974,22.549c-108.61,0-211.942-22.323-212.973-22.549l-6.781-1.482V237.249L142.197,59.756z
		 M687.354,558.388v96.378c0,29.97-49.945,55.891-122.555,68.323l-0.032-141.825c47.826-4.933,93.368-17.095,111.446-20.61
		C683.396,559.256,687.354,558.388,687.354,558.388z M402.098,638.869v-55.849h131.007v140.224H402.098v-52.68h64.447V638.87
		L402.098,638.869L402.098,638.869z M370.403,723.089c-72.609-12.433-122.555-38.354-122.555-68.323v-64.398v-31.979
		c0,0,1.667,0.366,4.804,1.005c13.766,2.806,63.44,16.608,117.487,22.225L370.403,723.089z M216.152,629.173v25.594
		c0,13.914,5.01,34.605,28.875,54.163c13.968,11.446,33.081,21.419,56.805,29.643c44.758,15.513,103.629,24.056,165.769,24.056
		c62.141,0,121.012-8.543,165.77-24.056c23.724-8.224,42.836-18.196,56.804-29.643c23.866-19.557,28.875-40.249,28.875-54.163
		v-25.111c110.385,25.381,182.344,66.961,182.344,113.95c0,77.293-194.688,139.952-434.849,139.952
		c-240.161,0-434.849-62.659-434.849-139.952C31.696,696.317,104.575,654.508,216.152,629.173z"/>
</g>
</svg>