<?xml version="1.0" encoding="iso-8859-1"?>
<!-- Uploaded to: SVG Repo, www.svgrepo.com, Generator: SVG Repo Mixer Tools -->
<!DOCTYPE svg PUBLIC "-//W3C//DTD SVG 1.1//EN" "http://www.w3.org/Graphics/SVG/1.1/DTD/svg11.dtd">
<svg fill="#000000" version="1.1" id="Capa_1" xmlns="http://www.w3.org/2000/svg" xmlns:xlink="http://www.w3.org/1999/xlink" 
	 width="800px" height="800px" viewBox="0 0 959.492 959.492"
	 xml:space="preserve">
<g>
	<path d="M834.605,368.164c33.359,0,64.719-12.99,88.307-36.577c23.586-23.586,36.576-54.947,36.576-88.304
		s-12.988-64.718-36.576-88.305c-22.074-22.072-51.246-34.878-81.99-36.41c-1.533-30.741-14.34-59.919-36.41-81.989
		c-48.691-48.691-127.918-48.691-176.609,0c-40.977,40.976-47.465,103.576-19.473,151.406L479.745,316.67L351.06,187.985
		c27.991-47.83,21.503-110.43-19.474-151.406c-48.69-48.692-127.918-48.691-176.609,0c-22.071,22.07-34.877,51.248-36.41,81.989
		c-30.741,1.533-59.919,14.339-81.989,36.41C12.991,178.565,0,209.926,0,243.283S12.99,308,36.578,331.587
		c23.586,23.587,54.947,36.577,88.305,36.577c22.55,0,44.184-5.944,63.125-17.078l128.661,128.66l-128.66,128.66
		c-18.941-11.134-40.575-17.078-63.125-17.078c-33.358,0-64.719,12.99-88.305,36.577c-23.587,23.586-36.578,54.947-36.578,88.304
		c0,33.357,12.99,64.718,36.578,88.305c22.072,22.071,51.245,34.879,81.989,36.409c1.533,30.741,14.339,59.918,36.41,81.989
		c24.345,24.345,56.325,36.52,88.305,36.52c31.979,0,63.958-12.175,88.304-36.52c40.977-40.976,47.465-103.576,19.474-151.406
		l128.686-128.685l128.685,128.686c-27.992,47.829-21.504,110.43,19.473,151.405c24.35,24.348,56.322,36.521,88.305,36.52
		c31.977-0.004,63.963-12.177,88.305-36.52c22.07-22.07,34.877-51.247,36.41-81.989c30.742-1.532,59.918-14.339,81.99-36.409
		c23.586-23.588,36.578-54.948,36.578-88.306c0-33.356-12.99-64.718-36.578-88.304c-23.586-23.587-54.947-36.577-88.307-36.577
		c-22.551,0-44.184,5.944-63.125,17.079L642.82,479.746l128.66-128.66C790.422,362.22,812.055,368.164,834.605,368.164z
		 M213.187,331.588C213.187,331.588,213.188,331.588,213.187,331.588c5.13-5.131,9.831-10.721,13.972-16.616l-12.924-9.08
		l-12.924-9.08c-3.097,4.408-6.617,8.594-10.462,12.438l0,0c-7.736,7.736-16.592,13.943-26.201,18.476
		c-12.278,5.792-25.786,8.848-39.764,8.848c-24.919,0-48.346-9.704-65.967-27.324c-17.62-17.62-27.324-41.047-27.324-65.966
		s9.705-48.346,27.324-65.967c19.588-19.588,46.677-29.406,74.323-26.938l18.82,1.681l-1.681-18.819
		c-2.469-27.646,7.349-54.736,26.937-74.324c17.621-17.62,41.048-27.324,65.966-27.324c24.919,0,48.347,9.704,65.967,27.324
		s27.323,41.048,27.323,65.966c0,13.979-3.056,27.488-8.848,39.766c-4.533,9.609-10.74,18.465-18.476,26.2l0,0
		c-3.846,3.846-8.03,7.365-12.438,10.461l9.079,12.926l9.079,12.926c5.896-4.141,11.486-8.842,16.617-13.973l125.819,125.819
		l-118.398,118.4L213.187,331.588z M746.303,627.904c-5.131,5.131-9.834,10.722-13.973,16.617l12.926,9.078l12.926,9.078
		c3.094-4.407,6.615-8.592,10.459-12.437c7.736-7.735,16.592-13.943,26.201-18.477c12.279-5.792,25.787-8.848,39.766-8.848
		c24.918,0,48.346,9.704,65.967,27.324c17.619,17.62,27.324,41.047,27.324,65.966s-9.705,48.346-27.324,65.966
		c-19.59,19.589-46.689,29.406-74.322,26.938l-18.82-1.682l1.68,18.819c2.471,27.646-7.35,54.736-26.938,74.324
		c-17.619,17.62-41.047,27.323-65.965,27.323s-48.348-9.704-65.967-27.323s-27.324-41.048-27.324-65.966
		c0-13.979,3.057-27.487,8.848-39.766c4.533-9.608,10.74-18.465,18.477-26.201c0,0,0.002,0,0.002-0.001
		c3.842-3.843,8.025-7.36,12.436-10.461l-9.08-12.924l-9.08-12.924c-5.898,4.144-11.488,8.846-16.613,13.972l0,0l-125.82-125.818
		l118.396-118.4L746.303,627.904z M768.641,309.249c-3.846-3.845-7.365-8.029-10.461-12.437l-12.926,9.079l-12.926,9.078
		c4.141,5.896,8.842,11.487,13.973,16.617L620.482,457.408l-22.34,22.338L479.745,598.146l-22.339,22.339L331.586,746.303
		c-5.131-5.131-10.723-9.832-16.617-13.973l-9.079,12.926l-9.079,12.926c4.407,3.097,8.593,6.615,12.438,10.461l0,0
		c3.782,3.782,7.177,7.848,10.213,12.124c3.171,4.467,5.946,9.167,8.263,14.075c5.792,12.278,8.848,25.787,8.848,39.767
		c0,24.918-9.705,48.346-27.323,65.966c-17.619,17.62-41.048,27.323-65.967,27.323c-24.918,0-48.345-9.704-65.966-27.323
		c-19.588-19.588-29.406-46.678-26.937-74.324l1.681-18.818l-18.82,1.681c-27.643,2.47-54.734-7.349-74.323-26.938
		c-17.62-17.619-27.324-41.047-27.324-65.966s9.705-48.346,27.324-65.966c17.621-17.62,41.048-27.324,65.967-27.324
		c13.979,0,27.487,3.057,39.765,8.849c4.909,2.315,9.609,5.091,14.076,8.262c4.276,3.036,8.341,6.43,12.124,10.213v0.001
		c3.845,3.845,7.365,8.031,10.462,12.438l12.924-9.08l12.924-9.08c-4.141-5.896-8.842-11.485-13.972-16.616l0,0l125.819-125.819
		l22.34-22.339l118.399-118.399l22.338-22.339l125.818-125.82c5.127,5.128,10.719,9.828,16.617,13.973l9.08-12.924l9.08-12.924
		c-4.412-3.099-8.596-6.618-12.438-10.462c-3.783-3.784-7.18-7.849-10.215-12.125c-3.172-4.467-5.947-9.167-8.262-14.076
		c-5.793-12.278-8.848-25.786-8.848-39.765c0-24.918,9.705-48.346,27.324-65.966s41.047-27.324,65.965-27.324
		s48.346,9.704,65.967,27.324c19.588,19.588,29.406,46.678,26.938,74.324l-1.682,18.819l18.82-1.681
		c27.643-2.468,54.734,7.349,74.322,26.938c17.621,17.62,27.324,41.047,27.324,65.966c0,24.918-9.705,48.345-27.324,65.966
		c-17.619,17.62-41.047,27.324-65.967,27.324c-13.979,0-27.486-3.056-39.764-8.848c-4.91-2.316-9.611-5.091-14.078-8.262
		C776.488,316.427,772.424,313.033,768.641,309.249L768.641,309.249z"/>
</g>
</svg>