<?xml version="1.0" encoding="iso-8859-1"?>
<!-- Uploaded to: SVG Repo, www.svgrepo.com, Generator: SVG Repo Mixer Tools -->
<!DOCTYPE svg PUBLIC "-//W3C//DTD SVG 1.1//EN" "http://www.w3.org/Graphics/SVG/1.1/DTD/svg11.dtd">
<svg fill="#000000" version="1.1" id="Capa_1" xmlns="http://www.w3.org/2000/svg" xmlns:xlink="http://www.w3.org/1999/xlink" 
	 width="800px" height="800px" viewBox="0 0 938.518 938.518"
	 xml:space="preserve">
<g>
	<path d="M30.437,485.5l19.302,26.789c58.054,80.572,119.972,139.945,184.035,176.471c50.311,28.686,101.454,43.229,152.008,43.229
		c38.277,0,67.076-8.404,83.479-14.816c16.403,6.412,45.205,14.816,83.477,14.816c81.087,0,205.209-38.115,336.043-219.699
		l19.302-26.789h30.436l-53.013-52.731c-5.839-5.808-143.947-142.896-226.275-200.069c-25.006-17.365-53.002-26.17-83.211-26.171
		c-29.083-0.001-59.185,8.076-89.47,24.007c-6.511,3.425-12.315,6.849-17.292,9.999c-4.977-3.149-10.781-6.572-17.292-9.997
		c-30.285-15.928-60.384-24.006-89.463-24.009c-30.206-0.002-58.204,8.803-83.214,26.171
		C196.96,289.872,58.852,426.961,53.013,432.768L0,485.498h30.437V485.5z M296.887,258.043
		c21.789-15.131,44.312-20.661,65.612-20.66c57.927,0.005,106.759,40.92,106.759,40.92s48.826-40.922,106.759-40.92
		c21.297,0.001,43.828,5.532,65.612,20.66c81.042,56.279,222.115,196.601,222.115,196.601c-98.524,0-222.322-63.564-289.491-63.564
		c-11.104,0-20.659,1.737-28.298,5.786c-41.237,21.853-72.681,22.514-76.34,22.514c-0.236,0-0.357-0.003-0.357-0.003
		s-0.12,0.003-0.357,0.003c-3.662,0-35.105-0.663-76.34-22.514c-7.642-4.05-17.188-5.787-28.298-5.786
		c-67.173,0.008-190.974,63.564-289.491,63.564C74.773,454.644,215.845,314.322,296.887,258.043z M645.472,491.994
		c-0.615-8.936-1.501-17.365-2.534-25.176c-1.555-11.754-3.445-22.098-5.264-30.634c-0.167-0.784-0.333-1.557-0.499-2.31
		c2.332,0.657,4.686,1.332,7.065,2.021c12.575,3.653,25.766,7.74,39.188,11.899c10.19,3.157,20.626,6.389,31.226,9.568
		c-0.582,3.784-1.241,7.53-1.968,11.244c-9.537,48.83-31.444,91.602-65.28,127.328c-4.625,4.883-9.204,9.33-13.628,13.354
		C644.333,573.484,648.35,533.775,645.472,491.994z M606.688,439.071c-46.125,6.261-78.907,19.781-102.642,29.576
		c-14.639,6.043-27.282,11.26-34.787,11.26s-20.147-5.219-34.787-11.26c-23.727-9.792-56.497-23.307-102.6-29.569
		c1.281-5.718,2.471-10.333,3.377-13.626c10.93-2.208,20.747-3.516,29.02-3.518c8.764,0,12.603,1.534,13.848,2.194
		c46.888,24.847,83.854,26.104,90.788,26.104c0.131,0,0.25,0,0.355-0.001c0.107,0.001,0.227,0.001,0.357,0.001
		c6.934,0,43.899-1.258,90.788-26.104c1.244-0.66,5.085-2.194,13.85-2.194c8.286,0,18.12,1.312,29.071,3.525
		C604.227,428.748,605.412,433.355,606.688,439.071z M304.791,609.291c-4.424-4.023-9.002-8.471-13.627-13.354
		c-33.836-35.729-55.745-78.5-65.281-127.332c-0.726-3.716-1.386-7.465-1.968-11.252c10.583-3.176,21.005-6.403,31.181-9.556
		c13.424-4.159,26.614-8.246,39.191-11.899c2.394-0.694,4.764-1.374,7.11-2.036c-0.166,0.759-0.334,1.536-0.502,2.325
		c-1.817,8.536-3.709,18.879-5.264,30.633c-1.033,7.811-1.918,16.241-2.533,25.174C290.22,533.775,294.236,573.484,304.791,609.291z
		 M195.054,471.568c13.044,69.848,47.263,117.939,74.678,146.605c32.024,33.486,61.687,48.387,62.934,49.004l43.85,21.727
		l-23.462-42.947c-28.938-52.975-31.869-111.35-29.231-150.992c0.605-9.105,1.526-17.664,2.604-25.527
		c75.645,9.898,111.672,41.322,142.833,41.322c31.163,0,67.194-31.428,142.847-41.324c6.182,45.424,7.191,114.684-26.59,176.521
		l-23.462,42.947l43.85-21.727c1.247-0.619,30.909-15.518,62.935-49.004c27.415-28.666,61.633-76.756,74.678-146.598
		c69.491,8.014,120.23,22.676,120.23,22.676C740.26,665.637,626.131,701.133,552.735,701.133c-51.931,0-83.477-17.783-83.477-17.783
		s-31.533,17.783-83.477,17.783c-73.396,0-187.536-35.514-311.009-206.881C74.773,494.252,125.536,479.582,195.054,471.568z"/>
</g>
</svg>