<?xml version="1.0" encoding="iso-8859-1"?>
<!-- Uploaded to: SVG Repo, www.svgrepo.com, Generator: SVG Repo Mixer Tools -->
<!DOCTYPE svg PUBLIC "-//W3C//DTD SVG 1.1//EN" "http://www.w3.org/Graphics/SVG/1.1/DTD/svg11.dtd">
<svg fill="#000000" version="1.1" id="Capa_1" xmlns="http://www.w3.org/2000/svg" xmlns:xlink="http://www.w3.org/1999/xlink" 
	 width="800px" height="800px" viewBox="0 0 967.512 967.512"
	 xml:space="preserve">
<g>
	<path d="M872.421,254.409L797.775,270l-17.372,3.628l-0.035-1.536l-1.121-48.635l-42.954,22.837l-49.749,26.45l-5.619,2.987
		l-7.485-0.553l-77.605-5.731l-1.104-0.081h-1.105H566.9h-1.033l-1.03,0.071l-66.08,4.555v-11.775
		c43.981-6.207,79.45-39.269,89.206-82.021h3.456h49.987v-28.839v-29.273V93.246h-39.019C589.395,39.801,541.14,0,483.756,0
		S378.118,39.801,365.125,93.244h-40.94v28.838v29.273v28.839h51.909h3.456c9.757,42.753,45.226,75.814,89.206,82.021v11.775
		l-66.08-4.555l-1.03-0.071h-1.032h-26.726h-1.105l-1.104,0.081l-77.606,5.731l-7.485,0.553l-5.619-2.987l-49.749-26.45
		l-42.954-22.837l-1.121,48.635l-0.035,1.536l-17.373-3.628L95.09,254.407l44.014,62.272l17.643,24.963l-5.657,4.015l-48.41,34.355
		l56.373,18.599l7.632,2.52l0.229,8.816l1.684,64.696l48.283-43.095l35.486-31.673l14.701,4.663l69.607,22.079l-35.04,304.857
		l-2.312,20.119l-33.779,8.84l-62.608,16.385l52.964,37.189l7.219,5.07l-2.124,7.75l-15.689,57.25l55.4-21.324l6.474-2.492
		l11.037,28.508l27.532,71.113l28.302-70.812l6.587-16.479l1.3,0.82l41.138,25.969l4.734-48.416l4.955-50.668l0.582,0.193
		l10.415-26.475l24.995-63.533v226.029h-51.755v31h133.509v-31h-51.754V710.488l24.995,63.531l10.415,26.475l0.709-0.236
		l4.959,50.711l4.734,48.416l41.138-25.969l1.3-0.82l6.587,16.479l28.302,70.812l27.532-71.113l11.037-28.508l6.474,2.492
		l55.4,21.324l-15.689-57.25l-2.124-7.75l7.22-5.07l52.964-37.189l-62.608-16.385l-33.914-8.875l-2.309-20.084l-35.04-304.856
		l69.606-22.08l14.701-4.663l35.486,31.673l48.283,43.095l1.684-64.696l0.229-8.817l7.631-2.519l56.373-18.599l-48.41-34.355
		l-5.657-4.015l17.644-24.963L872.421,254.409z M498.756,232.984v-52.789h59.319C549.479,206.982,526.78,227.502,498.756,232.984z
		 M405.89,151.356h-14.457h-38.41v-29.273h29.149h8.341c0-4.903,0.383-9.718,1.116-14.419c0.742-4.763,1.858-9.399,3.295-13.896
		c0.055-0.173,0.104-0.351,0.159-0.522c12.174-37.343,47.32-64.405,88.673-64.405s76.499,27.062,88.673,64.405
		c0.057,0.172,0.104,0.35,0.159,0.522c1.437,4.497,2.553,9.135,3.295,13.896c0.733,4.701,1.116,9.516,1.116,14.419h8.341h27.228
		v29.273h-22.053H576.08h-14.457H405.89z M409.437,180.195h59.319v52.789C440.734,227.502,418.034,206.982,409.437,180.195z
		 M196.906,409.168l-0.778-29.915l-27.673-9.13l30.075-21.344l-34.926-49.414l52.667,11l0.867-37.583l49.64,26.393L248.632,363
		L196.906,409.168z M397.952,848.047l-31.789-20.066l-19.969,49.961l-21.848-56.43l-34.417,13.248l7.702-28.105l-24.491-17.195
		l68.581-17.947l61.714,20.461L397.952,848.047z M415.844,763.037l-84.404-28.135l37.861-329.405l-92.299-29.278l1.735-6.368
		l17.092-62.73l0.553-2.03l77.504-5.724h26.726l68.143,4.697v30.666h-27.881v30h27.881v41.165h-27.881v30h27.881v41.166h-27.881v30
		h27.881v41.166h-27.881v30h27.881v50.318L415.844,763.037z M677.714,834.76l-34.417-13.248l-21.847,56.43l-19.97-49.961
		l-31.788,20.066l-5.484-56.074l61.714-20.461l68.581,17.947l-24.491,17.195L677.714,834.76z M598.211,405.498l37.861,329.405
		l-84.404,28.135l-52.912-134.492v-50.318h27.88v-30h-27.88v-41.166h27.88v-30h-27.88v-41.166h27.88v-30h-27.88V364.73h27.88v-30
		h-27.88v-30.666l68.144-4.697h26.725l77.504,5.724l0.553,2.03l17.092,62.73l1.735,6.368L598.211,405.498z M768.984,348.78
		l30.074,21.344l-27.673,9.13l-0.778,29.915l-51.726-46.168l-18.146-63.825l49.64-26.393l0.867,37.583l52.667-11L768.984,348.78z"/>
	<rect x="416.467" y="93.245" width="132.655" height="28.838"/>
</g>
</svg>