<?xml version="1.0" encoding="iso-8859-1"?>
<!-- Uploaded to: SVG Repo, www.svgrepo.com, Generator: SVG Repo Mixer Tools -->
<!DOCTYPE svg PUBLIC "-//W3C//DTD SVG 1.1//EN" "http://www.w3.org/Graphics/SVG/1.1/DTD/svg11.dtd">
<svg fill="#000000" version="1.1" id="Capa_1" xmlns="http://www.w3.org/2000/svg" xmlns:xlink="http://www.w3.org/1999/xlink" 
	 width="800px" height="800px" viewBox="0 0 984.416 984.415"
	 xml:space="preserve">
<g>
	<path d="M16.69,658.697l12.144,9.632l97.162-122.509l74.681,20.105c-7.818,2.148-15.51,4.809-23.047,7.995
		c-22.092,9.345-41.926,22.715-58.951,39.74s-30.396,36.859-39.74,58.951c-9.681,22.888-14.59,47.184-14.59,72.211
		s4.909,49.323,14.59,72.211c9.344,22.092,22.715,41.926,39.74,58.951c17.025,17.024,36.859,30.396,58.951,39.74
		c22.888,9.681,47.184,14.59,72.211,14.59s49.323-4.909,72.211-14.59c22.092-9.345,41.926-22.716,58.95-39.74
		c17.025-17.025,30.396-36.859,39.74-58.951c2.184-5.161,4.11-10.396,5.806-15.694l16.592,61.624L320.63,960.126l19.265,24.289
		l138.479-109.828l-8.858-32.904l-23.539-87.432l63.168,50.268l3.438,2.735v146.991h31V792.306l-11.586-9.22l-57.81-46.004
		l91.677,14.245l28.229,4.386l33.375-36.583l-0.012,30.008l34.207,0.016l0.023-56.456l249.568-140.639l47.178,27.896l17.41-29.443
		l-47.176-27.896l3.016-289.182l48.188-26.993l-16.717-29.843l-47.441,26.574L661.962,53.12l0.021-53.106L627.777,0l-0.023,56.454
		l-249.568,140.64l-47.177-27.896l-17.41,29.443l47.176,27.896l-2.744,263.138c-23.13,4.918-44.381,16.393-61.497,33.508
		c-3.656,3.656-7.054,7.5-10.187,11.512l-19.91-128.143l54.686-49.889l-20.893-22.901l-66.98,61.105l4.386,28.229l14.245,91.678
		l-46.004-57.812l-9.219-11.585H34.715v31h146.992l2.736,3.438l50.268,63.168l-87.432-23.539l-32.905-8.859L4.546,649.065
		L16.69,658.697L16.69,658.697z M894.667,502.51l-49.717-29.399l2.004-192.214l50.318-28.187L894.667,502.51z M661.945,92.85
		l219.258,129.654l-50.467,28.271l-168.816-99.827L661.945,92.85z M661.904,190.677l134.32,79.429l-50.469,28.271l-83.877-49.601
		L661.904,190.677z M812.544,300.17l-1.594,152.835l-49.719-29.398l0.994-95.248L812.544,300.17z M661.861,288.505l49.385,29.203
		l-49.408,27.677L661.861,288.505z M727.818,347.632l-0.584,55.868L679,374.978L727.818,347.632z M661.812,404.553l48.012,28.392
		l-48.037,27.069L661.812,404.553z M661.771,499.287l82.051-46.238l49.719,29.399l-131.795,74.271L661.771,499.287z
		 M661.728,595.993l165.811-93.438l49.719,29.399L661.705,653.425L661.728,595.993z M313.75,550.174
		c17.001-19.729,42.17-32.223,70.258-32.223c10.705,0,20.983,1.82,30.551,5.158c18.341,6.399,34.058,18.394,45.098,33.944
		c10.054,14.163,16.224,31.271,16.976,49.777c0.053,1.271,0.085,2.545,0.085,3.828c0,35.36-19.798,66.092-48.911,81.727
		c-1.974-6.691-4.318-13.291-7.06-19.771c-9.344-22.092-22.715-41.926-39.74-58.951c-17.024-17.025-36.858-30.396-58.95-39.74
		c-6.482-2.742-13.08-5.086-19.772-7.059C305.497,560.875,309.35,555.282,313.75,550.174z M582.41,722.526l-117.515-18.259
		c2.257-1.957,4.456-4,6.59-6.134c20.013-20.013,32.314-45.677,35.437-73.393l106.982,63.263L582.41,722.526z M95.35,744.825
		c0-85.324,69.168-154.492,154.492-154.492c4.053,0,8.069,0.158,12.043,0.464c5.211,0.402,10.349,1.062,15.402,1.967
		c5.134,0.921,10.18,2.098,15.125,3.512c51.099,14.616,91.364,54.882,105.98,105.979c1.415,4.945,2.591,9.99,3.511,15.124
		c0.906,5.055,1.566,10.192,1.968,15.403c0.307,3.974,0.464,7.99,0.464,12.043c0,85.324-69.169,154.493-154.492,154.493
		S95.35,830.148,95.35,744.825z M610.441,374.175l-48.818,27.346l0.584-55.868L610.441,374.175z M579.617,316.208l48.037-27.07
		L627.63,344.6L579.617,316.208z M627.605,403.769l-0.025,56.879l-49.383-29.202L627.605,403.769z M627.564,500.376l-0.025,58.1
		l-134.32-79.43l50.467-28.27L627.564,500.376z M627.669,249.865l-82.051,46.239l-49.719-29.4l131.795-74.271L627.669,249.865z
		 M528.207,325.547l-0.992,95.248l-50.319,28.188l1.594-152.835L528.207,325.547z M627.521,598.204l-0.025,58.1l-122.703-72.558
		c-5.025-22.769-16.424-43.677-33.31-60.562c-7.246-7.246-15.234-13.48-23.79-18.637l11.013-6.169L627.521,598.204z M627.738,95.728
		l-0.025,57.433l-165.81,93.438l-49.718-29.4L627.738,95.728z M394.772,246.643l49.718,29.4l-2.004,192.214l-36.752,20.587
		c-4.433-0.78-8.928-1.318-13.47-1.616L394.772,246.643z"/>
</g>
</svg>